<svg xmlns="http://www.w3.org/2000/svg" viewBox="0 0 512 512" width="512" height="512">
  <defs>
    <linearGradient id="board" x1="0" y1="0" x2="1" y2="1">
      <stop offset="0" stop-color="#3a2a1e"/>
      <stop offset="0.35" stop-color="#231913"/>
      <stop offset="1" stop-color="#140d09"/>
    </linearGradient>
    <radialGradient id="red" cx="0.35" cy="0.3" r="0.9">
      <stop offset="0" stop-color="#ff5a68"/><stop offset="0.55" stop-color="#c8102e"/><stop offset="1" stop-color="#7d0a1d"/>
    </radialGradient>
    <radialGradient id="yellow" cx="0.35" cy="0.3" r="0.9">
      <stop offset="0" stop-color="#ffe89a"/><stop offset="0.55" stop-color="#ffcf33"/><stop offset="1" stop-color="#b8860b"/>
    </radialGradient>
    <radialGradient id="green" cx="0.35" cy="0.3" r="0.9">
      <stop offset="0" stop-color="#5fc07c"/><stop offset="0.55" stop-color="#1f8a3b"/><stop offset="1" stop-color="#0c4a1e"/>
    </radialGradient>
    <radialGradient id="blue" cx="0.35" cy="0.3" r="0.9">
      <stop offset="0" stop-color="#6f9ae8"/><stop offset="0.55" stop-color="#1857c3"/><stop offset="1" stop-color="#0a2a6b"/>
    </radialGradient>
  </defs>
  <rect width="512" height="512" rx="96" fill="url(#board)"/>
  <rect x="14" y="14" width="484" height="484" rx="84" fill="none" stroke="#c9a34e" stroke-opacity="0.55" stroke-width="8"/>
  <g>
    <circle cx="166" cy="166" r="92" fill="#0c0805"/>
    <circle cx="346" cy="166" r="92" fill="#0c0805"/>
    <circle cx="166" cy="346" r="92" fill="#0c0805"/>
    <circle cx="346" cy="346" r="92" fill="#0c0805"/>
    <circle cx="166" cy="166" r="80" fill="url(#red)"/>
    <circle cx="346" cy="166" r="80" fill="url(#yellow)"/>
    <circle cx="166" cy="346" r="80" fill="url(#green)"/>
    <circle cx="346" cy="346" r="80" fill="url(#blue)"/>
    <ellipse cx="140" cy="136" rx="22" ry="14" fill="#ffffff" opacity="0.55"/>
    <ellipse cx="320" cy="136" rx="22" ry="14" fill="#ffffff" opacity="0.55"/>
    <ellipse cx="140" cy="316" rx="22" ry="14" fill="#ffffff" opacity="0.55"/>
    <ellipse cx="320" cy="316" rx="22" ry="14" fill="#ffffff" opacity="0.55"/>
  </g>
</svg>
